<?xml version="1.0" standalone="no"?><!DOCTYPE svg PUBLIC "-//W3C//DTD SVG 1.1//EN" "http://www.w3.org/Graphics/SVG/1.1/DTD/svg11.dtd"><svg t="1587954778225" class="icon" viewBox="0 0 1052 1024" version="1.1" xmlns="http://www.w3.org/2000/svg" p-id="1930" xmlns:xlink="http://www.w3.org/1999/xlink" width="131.5" height="128"><defs><style type="text/css"></style></defs><path d="M1011.540209 504.859883H40.959954a41.130621 41.130621 0 0 1-37.831069-24.94575 40.277289 40.277289 0 0 1 8.903102-44.145728l389.688456-384.966684a177.834469 177.834469 0 0 1 248.860167 0L1040.496622 435.768405a40.191955 40.191955 0 0 1 8.874656 44.145728 40.789288 40.789288 0 0 1-37.831069 24.94575zM731.561854 1023.998862h-39.992845a40.732399 40.732399 0 0 1-41.016843-40.504844v-97.052336a52.707497 52.707497 0 1 0-105.38655 0v97.052336A40.732399 40.732399 0 0 1 504.148773 1023.998862h-183.210463a171.434476 171.434476 0 0 1-163.413152-177.948247V600.177111a40.732399 40.732399 0 0 1 41.016844-40.504844h655.41616a40.760844 40.760844 0 0 1 41.016844 40.504844v245.901949A171.434476 171.434476 0 0 1 731.561854 1023.998862z m0 0" p-id="1931" fill="#2c2c2c"></path></svg>